<svg aria-hidden="true" style="width:0;height:0;position:absolute;overflow:hidden" xmlns="http://www.w3.org/2000/svg"><defs><symbol id="icon-favorite" viewBox="0 0 34 32"><path d="m17.231 31.705-2.412-2.412C5.859 21.367.001 16.025.001 9.478.001 4.136 4.136.001 9.478.001c2.929 0 5.858 1.378 7.754 3.618 1.895-2.24 4.825-3.618 7.754-3.618 5.342 0 9.477 4.135 9.477 9.477 0 6.548-5.858 11.889-14.818 19.815l-2.412 2.412z"/></symbol><symbol id="icon-close" viewBox="0 0 32 32"><path d="m26.667 7.303-1.97-1.97-7.808 7.808-7.808-7.808-1.97 1.97 7.808 7.808-7.808 7.808 1.97 1.97 7.808-7.808 7.808 7.808 1.97-1.97-7.808-7.808 7.808-7.808z"/></symbol><symbol id="icon-search-2" viewBox="0 0 32 32"><path d="M14.667 25.333c5.891 0 10.667-4.776 10.667-10.667S20.558 3.999 14.667 3.999 4 8.775 4 14.666s4.776 10.667 10.667 10.667zM28 28.001l-5.8-5.8"/></symbol><symbol id="login" viewBox="0 0 32 32"><path d="m11.71 15.29-4-4a.997.997 0 0 0-1.096-.207l.006-.002a1.003 1.003 0 0 0-.62.92v1H3a1 1 0 0 0-1 1v4a1 1 0 0 0 1 1h3v1c.002.413.255.767.613.918l.007.002c.105.051.228.08.358.08h.023H7h.006a.996.996 0 0 0 .704-.29l4-4c.183-.181.296-.432.296-.71s-.113-.529-.296-.71zM20 29.52h-.004c-.416 0-.802-.127-1.123-.344l.007.004a2 2 0 0 1-.88-1.657V4.518a2 2 0 0 1 2.753-1.853l-.013-.005 8 3.2A2.004 2.004 0 0 1 30 7.678v16.644c0 .838-.515 1.556-1.247 1.853l-.013.005-8 3.2c-.212.089-.459.14-.718.14h-.023H20zm0-25v23.01l8-3.21V7.68z"/><path d="M22 19a1 1 0 0 1-1-1v-4a1 1 0 0 1 2 0v4a1 1 0 0 1-1 1zM19 5h-4a2 2 0 0 0-2 2v19a2 2 0 0 0 2 2h4a1 1 0 0 0 1-1V6a1 1 0 0 0-1-1z"/><path d="M20 24c6.83-.25 8-5 8-6.67l1 7v.001c0 .419-.258.778-.623.927l-.007.002-8.53 3.47-.23-3.5z"/></symbol><symbol id="signup" viewBox="0 0 32 32"><path d="M22.3 24.1c-.8 0-1.6-.3-2.3-.9-.5-.5-1.3-.5-1.8 0-1.2 1.2-3.3 1.2-4.5 0-.5-.5-1.3-.5-1.8 0-1.2 1.2-3.3 1.2-4.5 0-.5-.5-1.3-.5-1.8 0-.4.4-1 .4-1.4 0s-.4-1 0-1.4c1.2-1.2 3.3-1.2 4.5 0 .5.5 1.3.5 1.8 0 1.2-1.2 3.3-1.2 4.5 0 .5.5 1.3.5 1.8 0 1.2-1.2 3.3-1.2 4.5 0 .5.5 1.3.5 1.8 0 1.2-1.2 3.3-1.2 4.5 0 .4.4.4 1 0 1.4s-1 .4-1.4 0c-.5-.5-1.3-.5-1.8 0-.5.6-1.3.9-2.1.9zm-13.7 4c-.9 0-1.8-.3-2.5-.8s-1.8-.5-2.5 0c-.4.3-1.1.3-1.4-.1s-.3-1.1.1-1.4c1.4-1.1 3.6-1.1 5 0 .7.5 1.8.5 2.5 0 1.4-1.1 3.6-1.1 5 0 .7.5 1.8.5 2.5 0 1.4-1.1 3.6-1.1 5 0 .7.5 1.8.5 2.5 0 1.4-1.1 3.6-1.1 5 0 .4.3.5 1 .1 1.4-.3.4-1 .5-1.4.1-.7-.5-1.8-.5-2.5 0-1.4 1.1-3.6 1.1-5 0-.7-.5-1.8-.5-2.5 0-1.4 1.1-3.6 1.1-5 0-.7-.5-1.8-.5-2.5 0-.6.5-1.5.8-2.4.8zM16 7c-.6 0-1-.4-1-1V3c0-.6.4-1 1-1s1 .4 1 1v3c0 .6-.4 1-1 1zM8.9 9.9c-.3 0-.5-.1-.7-.3L6.1 7.5c-.4-.4-.4-1 0-1.4s1-.4 1.4 0l2.1 2.1c.4.4.4 1 0 1.4-.2.2-.4.3-.7.3zM6 17H3c-.6 0-1-.4-1-1s.4-1 1-1h3c.6 0 1 .4 1 1s-.4 1-1 1zm23 0h-3c-.6 0-1-.4-1-1s.4-1 1-1h3c.6 0 1 .4 1 1s-.4 1-1 1zm-5.9-7.1c-.3 0-.5-.1-.7-.3-.4-.4-.4-1 0-1.4l2.1-2.1c.4-.4 1-.4 1.4 0s.4 1 0 1.4l-2.1 2.1c-.2.2-.5.3-.7.3zM16 8c-4.4 0-8 3.6-8 8 0 1.2.3 2.3.8 3.4.1.4.5.6.9.6H15v-5.6l-1.3 1.3c-.4.4-1 .4-1.4 0s-.4-1 0-1.4l3-3c.1-.1.2-.2.3-.2.2-.1.5-.1.8 0 .1.1.2.1.3.2l3 3c.4.4.4 1 0 1.4-.2.2-.4.3-.7.3s-.5-.1-.7-.3L17 14.4V20h5.3c.4 0 .7-.2.9-.6.5-1.1.8-2.2.8-3.4 0-4.4-3.6-8-8-8z"/></symbol><symbol id="profile" viewBox="0 0 32 32"><path d="M30.109 27.656a1.055 1.055 0 0 0-.298.937l-.001-.006.371 2.182a1.052 1.052 0 0 1-1.03 1.232 1.03 1.03 0 0 1-.491-.127l.005.003-1.945-1.03a1.035 1.035 0 0 0-.978.003l.006-.003-1.945 1.03a1.029 1.029 0 0 1-.487.124 1.052 1.052 0 0 1-1.029-1.238l-.001.006.374-2.182a1.054 1.054 0 0 0-.3-.93l-1.575-1.544c-.619-.609-.278-1.67.579-1.795l2.176-.317c.348-.052.635-.27.783-.569l.003-.006.971-1.985c.171-.349.523-.584.93-.584h.015c.407 0 .758.236.926.578l.003.006.974 1.985c.152.31.445.526.786.575l2.175.319c.856.125 1.198 1.184.577 1.793l-1.572 1.544zM14.67 13.81a10.548 10.548 0 0 0-.899-.046h-.005c-.299.004-.588.019-.873.045l.043-.003a4.178 4.178 0 0 1-3.27-4.071v-.002c0-2.3 1.859-4.171 4.142-4.171 2.285 0 4.143 1.871 4.143 4.171v.004a4.172 4.172 0 0 1-3.253 4.069l-.028.005zM2.778 23.718c-.001-.028-.017-.053-.017-.082V4.172c0-.768.618-1.391 1.38-1.391h9.578c-3.77.05-6.816 3.139-6.816 6.948 0 2.008.858 3.805 2.212 5.075-3.47 1.651-5.918 4.955-6.333 8.866l-.004.049zm17.378-7.929a10.76 10.76 0 0 0-1.622-.963l-.066-.029c1.37-1.272 2.244-3.058 2.244-5.082v-.017A6.915 6.915 0 0 0 13.9 2.784h-.005 9.578c.762 0 1.382.622 1.382 1.39v12.639c0 .697.563 1.265 1.256 1.265 1.046 0 1.505-.565 1.505-1.266V2.772a2.77 2.77 0 0 0-2.761-2.77H2.761a2.771 2.771 0 0 0-2.76 2.771v.01-.001 22.244c0 1.536 1.238 2.783 2.762 2.783h13.933c.694 0 1.256-.569 1.256-1.266 0-1.055-.561-1.517-1.256-1.517H5.49c-.001 0-.008-.09-.008-.147 0-4.303 3.256-7.85 7.416-8.287.302.04.6.093.911.093.296 0 .576-.088.861-.125 1.308.145 2.518.131 3.571 1.116 1.382 1.291 3.469-.775 1.916-1.887z"/></symbol><symbol id="logout" viewBox="0 0 32 32"><path d="M16.064 17.92c-.96.896-1.92 1.792-2.88 2.624-.448.384-.448.704 0 1.088 1.6 1.664 1.6 1.664 3.2 0 1.664-1.664 3.264-3.328 4.992-4.992.512-.512.512-.768 0-1.28a255.375 255.375 0 0 1-5.888-5.888c-.512-.512-.768-.576-1.28 0-1.536 1.536-1.536 1.536 0 3.072.64.576 1.216 1.152 1.856 1.792a.485.485 0 0 0-.128.256H5.248c-.448 0-.64-.192-.64-.64 0-3.392 0-6.848.064-10.24 0-1.536 1.344-2.88 2.944-2.88a749.09 749.09 0 0 1 16.96 0c1.664 0 2.944 1.344 2.944 3.008v24.576c0 1.6-1.344 2.944-3.008 2.944H7.488c-1.664 0-2.944-1.344-2.944-3.008-.064-3.328 0-6.656 0-10.048 0-.576.192-.704.768-.704h10.496c.064.128.128.192.256.32z"/></symbol><symbol id="icon-film" viewBox="0 0 32 32"><path d="M26.427 2.667H5.574a2.907 2.907 0 0 0-2.907 2.907v20.853a2.907 2.907 0 0 0 2.907 2.907h20.853a2.907 2.907 0 0 0 2.907-2.907V5.574a2.907 2.907 0 0 0-2.907-2.907zM9.333 2.667v26.667M22.667 2.667v26.667M2.667 16h26.667M2.667 9.333h6.667M2.667 22.667h6.667M22.667 22.667h6.667M22.667 9.333h6.667"/></symbol></defs></svg>