

<svg aria-hidden="true" style="position: absolute; width: 0; height: 0; overflow: hidden;" version="1.1" xmlns="http://www.w3.org/2000/svg" xmlns:xlink="http://www.w3.org/1999/xlink">
<defs>
<symbol id="icon-favorite" viewBox="0 0 34 32">
<path  d="M17.231 31.705l-2.412-2.412c-8.96-7.926-14.818-13.268-14.818-19.815 0-5.342 4.135-9.477 9.477-9.477 2.929 0 5.858 1.378 7.754 3.618 1.895-2.24 4.825-3.618 7.754-3.618 5.342 0 9.477 4.135 9.477 9.477 0 6.548-5.858 11.889-14.818 19.815l-2.412 2.412z"></path>
</symbol>
<symbol id="icon-close" viewBox="0 0 32 32">
<path d="M26.667 7.303l-1.97-1.97-7.808 7.808-7.808-7.808-1.97 1.97 7.808 7.808-7.808 7.808 1.97 1.97 7.808-7.808 7.808 7.808 1.97-1.97-7.808-7.808 7.808-7.808z"></path>
</symbol>
<symbol id="icon-search-2" viewBox="0 0 32 32">
<path d="M14.667 25.333c5.891 0 10.667-4.776 10.667-10.667s-4.776-10.667-10.667-10.667c-5.891 0-10.667 4.776-10.667 10.667s4.776 10.667 10.667 10.667z"></path>
<path d="M28 28.001l-5.8-5.8"></path>
</symbol>
<symbol id="login" viewBox="0 0 32 32">
<path d="M11.71 15.29l-4-4c-0.18-0.178-0.429-0.288-0.702-0.288-0.14 0-0.273 0.029-0.394 0.081l0.006-0.002c-0.365 0.153-0.618 0.507-0.62 0.92v1h-3c-0.552 0-1 0.448-1 1v0 4c0 0.552 0.448 1 1 1v0h3v1c0.002 0.413 0.255 0.767 0.613 0.918l0.007 0.002c0.105 0.051 0.228 0.080 0.358 0.080 0.008 0 0.015-0 0.023-0l-0.001 0c0.002 0 0.004 0 0.006 0 0.275 0 0.524-0.111 0.704-0.29l4-4c0.183-0.181 0.296-0.432 0.296-0.71s-0.113-0.529-0.296-0.71l-0-0zM20 29.52c-0.001 0-0.003 0-0.004 0-0.416 0-0.802-0.127-1.123-0.344l0.007 0.004c-0.534-0.365-0.88-0.97-0.88-1.657 0-0.001 0-0.002 0-0.003v0-23c0-0.001 0-0.001 0-0.002 0-1.105 0.895-2 2-2 0.267 0 0.521 0.052 0.753 0.147l-0.013-0.005 8 3.2c0.733 0.298 1.244 0.997 1.26 1.818l0 0.002v16.64c0 0.001 0 0.001 0 0.002 0 0.838-0.515 1.556-1.247 1.853l-0.013 0.005-8 3.2c-0.212 0.089-0.459 0.14-0.718 0.14-0.008 0-0.015-0-0.023-0h0.001zM20 4.52v23.010l8-3.21v-16.64z"></path>
<path d="M22 19c-0.552 0-1-0.448-1-1v0-4c0-0.552 0.448-1 1-1s1 0.448 1 1v0 4c0 0.552-0.448 1-1 1v0zM19 5h-4c-1.105 0-2 0.895-2 2v0 19c0 1.105 0.895 2 2 2v0h4c0.552 0 1-0.448 1-1v0-21c0-0.552-0.448-1-1-1v0z"></path>
<path d="M20 24c6.83-0.25 8-5 8-6.67l1 7c0 0 0 0.001 0 0.001 0 0.419-0.258 0.778-0.623 0.927l-0.007 0.002-8.53 3.47-0.23-3.5z"></path>
</symbol>
<symbol id="signup" viewBox="0 0 32 32">
<path d="M22.3 24.1c-0.8 0-1.6-0.3-2.3-0.9-0.5-0.5-1.3-0.5-1.8 0-1.2 1.2-3.3 1.2-4.5 0-0.5-0.5-1.3-0.5-1.8 0-1.2 1.2-3.3 1.2-4.5 0-0.5-0.5-1.3-0.5-1.8 0-0.4 0.4-1 0.4-1.4 0s-0.4-1 0-1.4c1.2-1.2 3.3-1.2 4.5 0 0.5 0.5 1.3 0.5 1.8 0 1.2-1.2 3.3-1.2 4.5 0 0.5 0.5 1.3 0.5 1.8 0 1.2-1.2 3.3-1.2 4.5 0 0.5 0.5 1.3 0.5 1.8 0 1.2-1.2 3.3-1.2 4.5 0 0.4 0.4 0.4 1 0 1.4s-1 0.4-1.4 0c-0.5-0.5-1.3-0.5-1.8 0-0.5 0.6-1.3 0.9-2.1 0.9zM8.6 28.1c-0.9 0-1.8-0.3-2.5-0.8s-1.8-0.5-2.5 0c-0.4 0.3-1.1 0.3-1.4-0.1s-0.3-1.1 0.1-1.4c1.4-1.1 3.6-1.1 5 0 0.7 0.5 1.8 0.5 2.5 0 1.4-1.1 3.6-1.1 5 0 0.7 0.5 1.8 0.5 2.5 0 1.4-1.1 3.6-1.1 5 0 0.7 0.5 1.8 0.5 2.5 0 1.4-1.1 3.6-1.1 5 0 0.4 0.3 0.5 1 0.1 1.4-0.3 0.4-1 0.5-1.4 0.1-0.7-0.5-1.8-0.5-2.5 0-1.4 1.1-3.6 1.1-5 0-0.7-0.5-1.8-0.5-2.5 0-1.4 1.1-3.6 1.1-5 0-0.7-0.5-1.8-0.5-2.5 0-0.6 0.5-1.5 0.8-2.4 0.8zM16 7c-0.6 0-1-0.4-1-1v-3c0-0.6 0.4-1 1-1s1 0.4 1 1v3c0 0.6-0.4 1-1 1zM8.9 9.9c-0.3 0-0.5-0.1-0.7-0.3l-2.1-2.1c-0.4-0.4-0.4-1 0-1.4s1-0.4 1.4 0l2.1 2.1c0.4 0.4 0.4 1 0 1.4-0.2 0.2-0.4 0.3-0.7 0.3zM6 17h-3c-0.6 0-1-0.4-1-1s0.4-1 1-1h3c0.6 0 1 0.4 1 1s-0.4 1-1 1zM29 17h-3c-0.6 0-1-0.4-1-1s0.4-1 1-1h3c0.6 0 1 0.4 1 1s-0.4 1-1 1zM23.1 9.9c-0.3 0-0.5-0.1-0.7-0.3-0.4-0.4-0.4-1 0-1.4l2.1-2.1c0.4-0.4 1-0.4 1.4 0s0.4 1 0 1.4l-2.1 2.1c-0.2 0.2-0.5 0.3-0.7 0.3zM16 8c-4.4 0-8 3.6-8 8 0 1.2 0.3 2.3 0.8 3.4 0.1 0.4 0.5 0.6 0.9 0.6h5.3v-5.6l-1.3 1.3c-0.4 0.4-1 0.4-1.4 0s-0.4-1 0-1.4l3-3c0.1-0.1 0.2-0.2 0.3-0.2 0.2-0.1 0.5-0.1 0.8 0 0.1 0.1 0.2 0.1 0.3 0.2l3 3c0.4 0.4 0.4 1 0 1.4-0.2 0.2-0.4 0.3-0.7 0.3s-0.5-0.1-0.7-0.3l-1.3-1.3v5.6h5.3c0.4 0 0.7-0.2 0.9-0.6 0.5-1.1 0.8-2.2 0.8-3.4 0-4.4-3.6-8-8-8z"></path>
</symbol>
<symbol id="profile" viewBox="0 0 32 32">
<path d="M30.109 27.656c-0.194 0.192-0.314 0.458-0.314 0.752 0 0.063 0.006 0.125 0.016 0.185l-0.001-0.006 0.371 2.182c0.010 0.054 0.015 0.116 0.015 0.18 0 0.579-0.467 1.048-1.045 1.052h-0c-0.178-0.001-0.345-0.047-0.491-0.127l0.005 0.003-1.945-1.030c-0.141-0.076-0.308-0.121-0.486-0.121s-0.345 0.045-0.492 0.124l0.006-0.003-1.945 1.030c-0.141 0.077-0.308 0.123-0.487 0.124h-0c-0.578-0.004-1.045-0.473-1.045-1.052 0-0.063 0.006-0.126 0.016-0.186l-0.001 0.006 0.374-2.182c0.010-0.053 0.015-0.115 0.015-0.177 0-0.295-0.121-0.562-0.315-0.753l-0-0-1.575-1.544c-0.619-0.609-0.278-1.67 0.579-1.795l2.176-0.317c0.348-0.052 0.635-0.27 0.783-0.569l0.003-0.006 0.971-1.985c0.171-0.349 0.523-0.584 0.93-0.584 0.002 0 0.004 0 0.007 0h-0c0.002-0 0.005-0 0.008-0 0.407 0 0.758 0.236 0.926 0.578l0.003 0.006 0.974 1.985c0.152 0.31 0.445 0.526 0.786 0.575l2.175 0.319c0.856 0.125 1.198 1.184 0.577 1.793l-1.572 1.544zM14.67 13.81c-0.267-0.026-0.581-0.043-0.899-0.046l-0.005-0c-0.299 0.004-0.588 0.019-0.873 0.045l0.043-0.003c-1.884-0.427-3.27-2.088-3.27-4.071 0-0.001 0-0.002 0-0.002v0c0-2.3 1.859-4.171 4.142-4.171 2.285 0 4.143 1.871 4.143 4.171 0 0.001 0 0.003 0 0.004 0 1.988-1.391 3.651-3.253 4.069l-0.028 0.005zM2.778 23.718c-0.001-0.028-0.017-0.053-0.017-0.082v-19.464c0-0.768 0.618-1.391 1.38-1.391h9.578c-3.77 0.050-6.816 3.139-6.816 6.948 0 2.008 0.858 3.805 2.212 5.075-3.47 1.651-5.918 4.955-6.333 8.866l-0.004 0.049zM20.156 15.789c-0.487-0.352-1.040-0.683-1.622-0.963l-0.066-0.029c1.37-1.272 2.244-3.058 2.244-5.082 0-0.005 0-0.011 0-0.017 0-3.785-3.041-6.859-6.812-6.914l-0.005-0h9.578c0.762 0 1.382 0.622 1.382 1.39v12.639c0 0.697 0.563 1.265 1.256 1.265 1.046 0 1.505-0.565 1.505-1.266v-14.027c0-0.004 0-0.008 0-0.013 0-1.527-1.235-2.765-2.761-2.77h-22.094c-1.526 0.006-2.76 1.245-2.76 2.771 0 0.003 0 0.007 0 0.010v-0.001 22.244c0 1.536 1.238 2.783 2.762 2.783h13.933c0.694 0 1.256-0.569 1.256-1.266 0-1.055-0.561-1.517-1.256-1.517h-11.206c-0.001 0-0.008-0.090-0.008-0.147 0-4.303 3.256-7.85 7.416-8.287 0.302 0.040 0.6 0.093 0.911 0.093 0.296 0 0.576-0.088 0.861-0.125 1.308 0.145 2.518 0.131 3.571 1.116 1.382 1.291 3.469-0.775 1.916-1.887z"></path>
</symbol>
<symbol id="logout" viewBox="0 0 32 32">
<path d="M16.064 17.92c-0.96 0.896-1.92 1.792-2.88 2.624-0.448 0.384-0.448 0.704 0 1.088 1.6 1.664 1.6 1.664 3.2 0 1.664-1.664 3.264-3.328 4.992-4.992 0.512-0.512 0.512-0.768 0-1.28-1.984-1.92-3.968-3.904-5.888-5.888-0.512-0.512-0.768-0.576-1.28 0-1.536 1.536-1.536 1.536 0 3.072 0.64 0.576 1.216 1.152 1.856 1.792-0.064 0.064-0.128 0.192-0.128 0.256h-10.688c-0.448 0-0.64-0.192-0.64-0.64 0-3.392 0-6.848 0.064-10.24 0-1.536 1.344-2.88 2.944-2.88 5.632-0.064 11.328-0.064 16.96 0 1.664 0 2.944 1.344 2.944 3.008v24.576c0 1.6-1.344 2.944-3.008 2.944h-17.024c-1.664 0-2.944-1.344-2.944-3.008-0.064-3.328 0-6.656 0-10.048 0-0.576 0.192-0.704 0.768-0.704h10.496c0.064 0.128 0.128 0.192 0.256 0.32z"></path>
</symbol>
<symbol id="icon-film" viewBox="0 0 32 32">
<path  d="M26.427 2.667h-20.853c-1.605 0-2.907 1.301-2.907 2.907v20.853c0 1.605 1.301 2.907 2.907 2.907h20.853c1.605 0 2.907-1.301 2.907-2.907v-20.853c0-1.605-1.301-2.907-2.907-2.907z"></path>
<path  d="M9.333 2.667v26.667"></path>
<path  d="M22.667 2.667v26.667"></path>
<path  d="M2.667 16h26.667"></path>
<path  d="M2.667 9.333h6.667"></path>
<path  d="M2.667 22.667h6.667"></path>
<path  d="M22.667 22.667h6.667"></path>
<path  d="M22.667 9.333h6.667"></path>
</symbol>
</defs>
</svg>
